<svg width="60" height="60" viewBox="0 0 60 60" fill="none" xmlns="http://www.w3.org/2000/svg">
<rect width="60" height="60" fill="white"/>
<path d="M14.8584 35.3125C13.8949 35.3125 13.068 34.9674 12.3779 34.2773C11.6878 33.5872 11.3428 32.7604 11.3428 31.7969C11.3428 30.8333 11.6878 30.0065 12.3779 29.3164C13.068 28.6263 13.8949 28.2812 14.8584 28.2812C15.8219 28.2812 16.6488 28.6263 17.3389 29.3164C18.029 30.0065 18.374 30.8333 18.374 31.7969C18.374 32.4349 18.2113 33.0208 17.8857 33.5547C17.5732 34.0885 17.1501 34.5182 16.6162 34.8437C16.0954 35.1563 15.5094 35.3125 14.8584 35.3125ZM30.0049 35.3125C29.0413 35.3125 28.2145 34.9674 27.5244 34.2773C26.8343 33.5872 26.4893 32.7604 26.4893 31.7969C26.4893 30.8333 26.8343 30.0065 27.5244 29.3164C28.2145 28.6263 29.0413 28.2812 30.0049 28.2812C30.9684 28.2812 31.7952 28.6263 32.4854 29.3164C33.1755 30.0065 33.5205 30.8333 33.5205 31.7969C33.5205 32.4349 33.3577 33.0208 33.0322 33.5547C32.7197 34.0885 32.2965 34.5182 31.7627 34.8437C31.2419 35.1563 30.6559 35.3125 30.0049 35.3125ZM45.1514 35.3125C44.1878 35.3125 43.361 34.9674 42.6709 34.2773C41.9808 33.5872 41.6357 32.7604 41.6357 31.7969C41.6357 30.8333 41.9808 30.0065 42.6709 29.3164C43.361 28.6263 44.1878 28.2812 45.1514 28.2812C46.1149 28.2812 46.9417 28.6263 47.6318 29.3164C48.3219 30.0065 48.667 30.8333 48.667 31.7969C48.667 32.4349 48.5042 33.0208 48.1787 33.5547C47.8662 34.0885 47.443 34.5182 46.9092 34.8437C46.3883 35.1563 45.8024 35.3125 45.1514 35.3125Z" fill="#F3CE49"/>
</svg>
